<?xml version="1.0" encoding="UTF-8"?><svg xmlns="http://www.w3.org/2000/svg" xmlns:xlink="http://www.w3.org/1999/xlink"><symbol viewBox="0 0 18 16" id="icon-arrow-right" xmlns="http://www.w3.org/2000/svg"><g fill="none" fill-rule="evenodd" stroke-linecap="round" stroke-linejoin="round"><path d="M1 8h14M10 1l7 7-7 7"/></g></symbol><symbol viewBox="0 0 18 16" id="icon-arrow-right" xmlns="http://www.w3.org/2000/svg"><g fill="none" fill-rule="evenodd" stroke-linecap="round" stroke-linejoin="round"><path d="M1 8h14M10 1l7 7-7 7"/></g></symbol><symbol viewBox="0 0 18 16" id="icon-arrow-right" xmlns="http://www.w3.org/2000/svg"><g fill="none" fill-rule="evenodd" stroke-linecap="round" stroke-linejoin="round"><path d="M1 8h14M10 1l7 7-7 7"/></g></symbol><symbol viewBox="0 0 18 16" id="icon-arrow-right" xmlns="http://www.w3.org/2000/svg"><g fill="none" fill-rule="evenodd" stroke-linecap="round" stroke-linejoin="round"><path d="M1 8h14M10 1l7 7-7 7"/></g></symbol><symbol viewBox="0 0 18 16" id="icon-arrow-right" xmlns="http://www.w3.org/2000/svg"><g fill="none" fill-rule="evenodd" stroke-linecap="round" stroke-linejoin="round"><path d="M1 8h14M10 1l7 7-7 7"/></g></symbol><symbol viewBox="0 0 18 16" id="icon-arrow-right" xmlns="http://www.w3.org/2000/svg"><g fill="none" fill-rule="evenodd" stroke-linecap="round" stroke-linejoin="round"><path d="M1 8h14M10 1l7 7-7 7"/></g></symbol><symbol viewBox="0 0 18 16" id="icon-arrow-right" xmlns="http://www.w3.org/2000/svg"><g fill="none" fill-rule="evenodd" stroke-linecap="round" stroke-linejoin="round"><path d="M1 8h14M10 1l7 7-7 7"/></g></symbol><symbol viewBox="0 0 18 16" id="icon-arrow-right" xmlns="http://www.w3.org/2000/svg"><g fill="none" fill-rule="evenodd" stroke-linecap="round" stroke-linejoin="round"><path d="M1 8h14M10 1l7 7-7 7"/></g></symbol><symbol viewBox="0 0 18 16" id="icon-arrow-right" xmlns="http://www.w3.org/2000/svg"><g fill="none" fill-rule="evenodd" stroke-linecap="round" stroke-linejoin="round"><path d="M1 8h14M10 1l7 7-7 7"/></g></symbol><symbol viewBox="0 0 18 16" id="icon-arrow-right" xmlns="http://www.w3.org/2000/svg"><g fill="none" fill-rule="evenodd" stroke-linecap="round" stroke-linejoin="round"><path d="M1 8h14M10 1l7 7-7 7"/></g></symbol><symbol viewBox="0 0 18 16" id="icon-arrow-right" xmlns="http://www.w3.org/2000/svg"><g fill="none" fill-rule="evenodd" stroke-linecap="round" stroke-linejoin="round"><path d="M1 8h14M10 1l7 7-7 7"/></g></symbol><symbol viewBox="0 0 18 16" id="icon-arrow-right" xmlns="http://www.w3.org/2000/svg"><g fill="none" fill-rule="evenodd" stroke-linecap="round" stroke-linejoin="round"><path d="M1 8h14M10 1l7 7-7 7"/></g></symbol><symbol viewBox="0 0 18 16" id="icon-arrow-right" xmlns="http://www.w3.org/2000/svg"><g fill="none" fill-rule="evenodd" stroke-linecap="round" stroke-linejoin="round"><path d="M1 8h14M10 1l7 7-7 7"/></g></symbol><symbol viewBox="0 0 18 16" id="icon-arrow-right" xmlns="http://www.w3.org/2000/svg"><g fill="none" fill-rule="evenodd" stroke-linecap="round" stroke-linejoin="round"><path d="M1 8h14M10 1l7 7-7 7"/></g></symbol><symbol viewBox="0 0 18 16" id="icon-arrow-right" xmlns="http://www.w3.org/2000/svg"><g fill="none" fill-rule="evenodd" stroke-linecap="round" stroke-linejoin="round"><path d="M1 8h14M10 1l7 7-7 7"/></g></symbol><symbol viewBox="0 0 18 16" id="icon-arrow-right" xmlns="http://www.w3.org/2000/svg"><g fill="none" fill-rule="evenodd" stroke-linecap="round" stroke-linejoin="round"><path d="M1 8h14M10 1l7 7-7 7"/></g></symbol><symbol viewBox="0 0 18 16" id="icon-arrow-right" xmlns="http://www.w3.org/2000/svg"><g fill="none" fill-rule="evenodd" stroke-linecap="round" stroke-linejoin="round"><path d="M1 8h14M10 1l7 7-7 7"/></g></symbol><symbol viewBox="0 0 18 16" id="icon-arrow-right" xmlns="http://www.w3.org/2000/svg"><g fill="none" fill-rule="evenodd" stroke-linecap="round" stroke-linejoin="round"><path d="M1 8h14M10 1l7 7-7 7"/></g></symbol><symbol viewBox="0 0 18 16" id="icon-arrow-right" xmlns="http://www.w3.org/2000/svg"><g fill="none" fill-rule="evenodd" stroke-linecap="round" stroke-linejoin="round"><path d="M1 8h14M10 1l7 7-7 7"/></g></symbol><symbol viewBox="0 0 18 16" id="icon-arrow-right" xmlns="http://www.w3.org/2000/svg"><g fill="none" fill-rule="evenodd" stroke-linecap="round" stroke-linejoin="round"><path d="M1 8h14M10 1l7 7-7 7"/></g></symbol><symbol viewBox="0 0 18 16" id="icon-arrow-right" xmlns="http://www.w3.org/2000/svg"><g fill="none" fill-rule="evenodd" stroke-linecap="round" stroke-linejoin="round"><path d="M1 8h14M10 1l7 7-7 7"/></g></symbol><symbol viewBox="0 0 18 16" id="icon-arrow-right" xmlns="http://www.w3.org/2000/svg"><g fill="none" fill-rule="evenodd" stroke-linecap="round" stroke-linejoin="round"><path d="M1 8h14M10 1l7 7-7 7"/></g></symbol><symbol viewBox="0 0 18 16" id="icon-arrow-right" xmlns="http://www.w3.org/2000/svg"><g fill="none" fill-rule="evenodd" stroke-linecap="round" stroke-linejoin="round"><path d="M1 8h14M10 1l7 7-7 7"/></g></symbol><symbol viewBox="0 0 18 16" id="icon-arrow-right" xmlns="http://www.w3.org/2000/svg"><g fill="none" fill-rule="evenodd" stroke-linecap="round" stroke-linejoin="round"><path d="M1 8h14M10 1l7 7-7 7"/></g></symbol><symbol viewBox="0 0 18 16" id="icon-arrow-right" xmlns="http://www.w3.org/2000/svg"><g fill="none" fill-rule="evenodd" stroke-linecap="round" stroke-linejoin="round"><path d="M1 8h14M10 1l7 7-7 7"/></g></symbol><symbol viewBox="0 0 18 16" id="icon-arrow-right" xmlns="http://www.w3.org/2000/svg"><g fill="none" fill-rule="evenodd" stroke-linecap="round" stroke-linejoin="round"><path d="M1 8h14M10 1l7 7-7 7"/></g></symbol><symbol viewBox="0 0 18 16" id="icon-arrow-right" xmlns="http://www.w3.org/2000/svg"><g fill="none" fill-rule="evenodd" stroke-linecap="round" stroke-linejoin="round"><path d="M1 8h14M10 1l7 7-7 7"/></g></symbol><symbol viewBox="0 0 18 16" id="icon-arrow-right" xmlns="http://www.w3.org/2000/svg"><g fill="none" fill-rule="evenodd" stroke-linecap="round" stroke-linejoin="round"><path d="M1 8h14M10 1l7 7-7 7"/></g></symbol><symbol viewBox="0 0 18 16" id="icon-arrow-right" xmlns="http://www.w3.org/2000/svg"><g fill="none" fill-rule="evenodd" stroke-linecap="round" stroke-linejoin="round"><path d="M1 8h14M10 1l7 7-7 7"/></g></symbol><symbol viewBox="0 0 18 16" id="icon-arrow-right" xmlns="http://www.w3.org/2000/svg"><g fill="none" fill-rule="evenodd" stroke-linecap="round" stroke-linejoin="round"><path d="M1 8h14M10 1l7 7-7 7"/></g></symbol><symbol viewBox="0 0 18 16" id="icon-arrow-right" xmlns="http://www.w3.org/2000/svg"><g fill="none" fill-rule="evenodd" stroke-linecap="round" stroke-linejoin="round"><path d="M1 8h14M10 1l7 7-7 7"/></g></symbol><symbol viewBox="0 0 18 16" id="icon-arrow-right" xmlns="http://www.w3.org/2000/svg"><g fill="none" fill-rule="evenodd" stroke-linecap="round" stroke-linejoin="round"><path d="M1 8h14M10 1l7 7-7 7"/></g></symbol><symbol viewBox="0 0 18 16" id="icon-arrow-right" xmlns="http://www.w3.org/2000/svg"><g fill="none" fill-rule="evenodd" stroke-linecap="round" stroke-linejoin="round"><path d="M1 8h14M10 1l7 7-7 7"/></g></symbol><symbol viewBox="0 0 18 16" id="icon-arrow-right" xmlns="http://www.w3.org/2000/svg"><g fill="none" fill-rule="evenodd" stroke-linecap="round" stroke-linejoin="round"><path d="M1 8h14M10 1l7 7-7 7"/></g></symbol><symbol viewBox="0 0 18 16" id="icon-arrow-right" xmlns="http://www.w3.org/2000/svg"><g fill="none" fill-rule="evenodd" stroke-linecap="round" stroke-linejoin="round"><path d="M1 8h14M10 1l7 7-7 7"/></g></symbol><symbol viewBox="0 0 18 16" id="icon-arrow-right" xmlns="http://www.w3.org/2000/svg"><g fill="none" fill-rule="evenodd" stroke-linecap="round" stroke-linejoin="round"><path d="M1 8h14M10 1l7 7-7 7"/></g></symbol><symbol viewBox="0 0 18 16" id="icon-arrow-right" xmlns="http://www.w3.org/2000/svg"><g fill="none" fill-rule="evenodd" stroke-linecap="round" stroke-linejoin="round"><path d="M1 8h14M10 1l7 7-7 7"/></g></symbol><symbol viewBox="0 0 18 16" id="icon-arrow-right" xmlns="http://www.w3.org/2000/svg"><g fill="none" fill-rule="evenodd" stroke-linecap="round" stroke-linejoin="round"><path d="M1 8h14M10 1l7 7-7 7"/></g></symbol><symbol viewBox="0 0 18 16" id="icon-arrow-right" xmlns="http://www.w3.org/2000/svg"><g fill="none" fill-rule="evenodd" stroke-linecap="round" stroke-linejoin="round"><path d="M1 8h14M10 1l7 7-7 7"/></g></symbol><symbol viewBox="0 0 18 16" id="icon-arrow-right" xmlns="http://www.w3.org/2000/svg"><g fill="none" fill-rule="evenodd" stroke-linecap="round" stroke-linejoin="round"><path d="M1 8h14M10 1l7 7-7 7"/></g></symbol><symbol viewBox="0 0 18 16" id="icon-arrow-right" xmlns="http://www.w3.org/2000/svg"><g fill="none" fill-rule="evenodd" stroke-linecap="round" stroke-linejoin="round"><path d="M1 8h14M10 1l7 7-7 7"/></g></symbol><symbol viewBox="0 0 18 16" id="icon-arrow-right" xmlns="http://www.w3.org/2000/svg"><g fill="none" fill-rule="evenodd" stroke-linecap="round" stroke-linejoin="round"><path d="M1 8h14M10 1l7 7-7 7"/></g></symbol><symbol viewBox="0 0 18 16" id="icon-arrow-right" xmlns="http://www.w3.org/2000/svg"><g fill="none" fill-rule="evenodd" stroke-linecap="round" stroke-linejoin="round"><path d="M1 8h14M10 1l7 7-7 7"/></g></symbol><symbol viewBox="0 0 18 16" id="icon-arrow-right" xmlns="http://www.w3.org/2000/svg"><g fill="none" fill-rule="evenodd" stroke-linecap="round" stroke-linejoin="round"><path d="M1 8h14M10 1l7 7-7 7"/></g></symbol><symbol viewBox="0 0 18 16" id="icon-arrow-right" xmlns="http://www.w3.org/2000/svg"><g fill="none" fill-rule="evenodd" stroke-linecap="round" stroke-linejoin="round"><path d="M1 8h14M10 1l7 7-7 7"/></g></symbol><symbol viewBox="0 0 18 16" id="icon-arrow-right" xmlns="http://www.w3.org/2000/svg"><g fill="none" fill-rule="evenodd" stroke-linecap="round" stroke-linejoin="round"><path d="M1 8h14M10 1l7 7-7 7"/></g></symbol><symbol viewBox="0 0 18 16" id="icon-arrow-right" xmlns="http://www.w3.org/2000/svg"><g fill="none" fill-rule="evenodd" stroke-linecap="round" stroke-linejoin="round"><path d="M1 8h14M10 1l7 7-7 7"/></g></symbol><symbol viewBox="0 0 18 16" id="icon-arrow-right" xmlns="http://www.w3.org/2000/svg"><g fill="none" fill-rule="evenodd" stroke-linecap="round" stroke-linejoin="round"><path d="M1 8h14M10 1l7 7-7 7"/></g></symbol><symbol viewBox="0 0 18 16" id="icon-arrow-right" xmlns="http://www.w3.org/2000/svg"><g fill="none" fill-rule="evenodd" stroke-linecap="round" stroke-linejoin="round"><path d="M1 8h14M10 1l7 7-7 7"/></g></symbol><symbol viewBox="0 0 18 16" id="icon-arrow-right" xmlns="http://www.w3.org/2000/svg"><g fill="none" fill-rule="evenodd" stroke-linecap="round" stroke-linejoin="round"><path d="M1 8h14M10 1l7 7-7 7"/></g></symbol><symbol viewBox="0 0 18 16" id="icon-arrow-right" xmlns="http://www.w3.org/2000/svg"><g fill="none" fill-rule="evenodd" stroke-linecap="round" stroke-linejoin="round"><path d="M1 8h14M10 1l7 7-7 7"/></g></symbol><symbol viewBox="0 0 18 16" id="icon-arrow-right" xmlns="http://www.w3.org/2000/svg"><g fill="none" fill-rule="evenodd" stroke-linecap="round" stroke-linejoin="round"><path d="M1 8h14M10 1l7 7-7 7"/></g></symbol><symbol viewBox="0 0 18 16" id="icon-arrow-right" xmlns="http://www.w3.org/2000/svg"><g fill="none" fill-rule="evenodd" stroke-linecap="round" stroke-linejoin="round"><path d="M1 8h14M10 1l7 7-7 7"/></g></symbol><symbol viewBox="0 0 18 16" id="icon-arrow-right" xmlns="http://www.w3.org/2000/svg"><g fill="none" fill-rule="evenodd" stroke-linecap="round" stroke-linejoin="round"><path d="M1 8h14M10 1l7 7-7 7"/></g></symbol><symbol viewBox="0 0 18 16" id="icon-arrow-right" xmlns="http://www.w3.org/2000/svg"><g fill="none" fill-rule="evenodd" stroke-linecap="round" stroke-linejoin="round"><path d="M1 8h14M10 1l7 7-7 7"/></g></symbol><symbol viewBox="0 0 18 16" id="icon-arrow-right" xmlns="http://www.w3.org/2000/svg"><g fill="none" fill-rule="evenodd" stroke-linecap="round" stroke-linejoin="round"><path d="M1 8h14M10 1l7 7-7 7"/></g></symbol><symbol viewBox="0 0 18 16" id="icon-arrow-right" xmlns="http://www.w3.org/2000/svg"><g fill="none" fill-rule="evenodd" stroke-linecap="round" stroke-linejoin="round"><path d="M1 8h14M10 1l7 7-7 7"/></g></symbol><symbol viewBox="0 0 18 16" id="icon-arrow-right" xmlns="http://www.w3.org/2000/svg"><g fill="none" fill-rule="evenodd" stroke-linecap="round" stroke-linejoin="round"><path d="M1 8h14M10 1l7 7-7 7"/></g></symbol></svg>